<svg width="32" height="36" viewBox="0 0 32 36" fill="none" xmlns="http://www.w3.org/2000/svg">
<rect y="0.25" width="32" height="35.5" rx="2" fill="#EDEDED"/>
<path d="M5.97927 23.25H25.0207C25.4016 23.25 25.6872 23.0735 25.8776 22.7206C26.068 22.3676 26.0363 22.0308 25.7824 21.7099L20.546 14.635C20.3556 14.3783 20.1017 14.25 19.7843 14.25C19.467 14.25 19.2131 14.3783 19.0227 14.635L14.0719 21.3249L10.5492 16.5602C10.3588 16.3035 10.1049 16.1751 9.78756 16.1751C9.47021 16.1751 9.21632 16.3035 9.02591 16.5602L5.21762 21.7099C4.96373 22.0308 4.932 22.3676 5.12241 22.7206C5.31282 23.0735 5.59844 23.25 5.97927 23.25Z" fill="#666666"/>
</svg>
