<svg width="28" height="29" viewBox="0 0 28 29" fill="none" xmlns="http://www.w3.org/2000/svg">
<path d="M4.66732 7.49967H2.33398V23.833C2.33398 25.1163 3.38398 26.1663 4.66732 26.1663H21.0007V23.833H4.66732V7.49967ZM23.334 2.83301H9.33398C8.05065 2.83301 7.00065 3.88301 7.00065 5.16634V19.1663C7.00065 20.4497 8.05065 21.4997 9.33398 21.4997H23.334C24.6173 21.4997 25.6673 20.4497 25.6673 19.1663V5.16634C25.6673 3.88301 24.6173 2.83301 23.334 2.83301ZM23.334 19.1663H9.33398V5.16634H23.334V19.1663ZM11.6673 10.9997H21.0007V13.333H11.6673V10.9997ZM11.6673 14.4997H16.334V16.833H11.6673V14.4997ZM11.6673 7.49967H21.0007V9.83301H11.6673V7.49967Z" fill="#B2B2B2"/>
</svg>
